<svg width="54" height="49" viewBox="0 0 54 49" fill="none" xmlns="http://www.w3.org/2000/svg">
<path d="M27.0003 23.4167C29.917 22.2501 29.042 18.1667 27.0003 16.4167C23.792 13.7917 19.1253 15.2501 17.0837 18.7501C12.7087 25.7501 19.7087 33.3334 27.0003 33.0417C34.8753 32.4584 39.542 24.5834 37.792 17.2917C35.7503 8.54172 26.417 4.16672 18.2503 6.79172C10.667 9.12505 6.00032 17.0001 6.58365 24.8751C7.45865 33.6251 14.167 40.6251 22.6253 42.0834C30.792 43.5417 39.2503 39.7501 43.6253 32.7501C45.667 29.5417 47.1253 25.7501 47.1253 21.6667C47.1253 20.2084 48.5837 18.7501 50.3337 19.0417C52.667 19.0417 53.2503 21.3751 52.9587 23.1251C51.792 36.8334 39.8337 48.2084 25.8337 48.2084C8.62532 48.2084 -4.79135 30.1251 2.50032 13.7917C9.79199 -1.95828 32.542 -5.16661 41.292 10.2917C45.667 17.5834 44.792 27.2084 38.667 33.3334C32.8337 39.1667 23.2087 40.3334 16.2087 35.3751C9.79199 30.7084 7.75032 21.0834 13.0003 14.3751C17.9587 7.66672 29.042 7.37505 33.417 14.9584C36.6253 20.5001 33.417 30.1251 26.1253 29.2501C21.4587 29.2501 17.3753 24.2917 20.0003 19.9167C21.7503 17.2917 25.542 18.1667 26.7087 20.2084C27.292 22.5417 27.0003 23.4167 27.0003 23.4167Z" fill="white"/>
</svg>
