<svg width="58" height="60" viewBox="0 0 58 60" fill="none" xmlns="http://www.w3.org/2000/svg">
<path d="M57.875 20.9583L52.9167 23.875L41.25 3.74998L46.2083 0.833313L57.875 20.9583ZM22.5833 18.0416L31.3333 33.2083L49.125 23L40.375 7.83331L22.5833 18.0416ZM27.25 32.0416L21.4167 21.8333L8.875 29.125L14.7083 39.3333L27.25 32.0416ZM0.125 37.5833L3.04167 42.5416L10.625 38.1667L7.70833 33.2083L0.125 37.5833ZM29.2917 35.8333L28.4167 34.6667L15.875 41.9583L16.75 43.125C17.3333 44 18.2083 44.875 19.0833 45.4583L14.4167 59.1667H20.25L24.3333 46.625H24.625L29 59.1667H34.8333L29.2917 42.8333C30.75 40.7916 30.75 38.1666 29.2917 35.8333Z" fill="white"/>
</svg>
