<svg width="203" height="59" viewBox="0 0 203 59" fill="none" xmlns="http://www.w3.org/2000/svg">
<path d="M31.1673 11.5948C34.3533 6.72429 43.6034 5.63882 56.3966 5.63882H56.5366V52.8639H49.8424C48.9601 46.8445 45.2839 42.4392 40.1792 39.6268C41.8923 38.0986 43.1977 36.1628 43.9764 33.9962C44.7551 31.8296 44.9822 29.5011 44.637 27.2234C44.2918 24.9457 43.3854 22.7913 42.0003 20.9569C40.6153 19.1225 38.7958 17.6666 36.7081 16.722C34.6203 15.7774 32.3308 15.3743 30.0484 15.5495C27.7661 15.7247 25.5637 16.4725 23.6424 17.7248C21.721 18.977 20.1419 20.6938 19.0491 22.7184C17.9564 24.7429 17.3849 27.0107 17.3867 29.3148C17.3867 36.9343 23.5207 42.411 31.0972 42.411C31.4824 42.411 31.8675 42.411 32.2456 42.3546C35.3171 42.6168 38.2028 43.9444 40.4097 46.1106C42.6166 48.2768 44.0078 51.1472 44.3456 54.2313C44.4019 54.7251 44.43 55.2216 44.4296 55.7186C44.4296 56.0921 44.4296 56.4234 44.3806 56.8252C44.4671 57.3204 44.7261 57.7683 45.1111 58.0887C45.4961 58.409 45.9819 58.5808 46.4813 58.5732H60.0798C60.6369 58.5732 61.1712 58.3504 61.5652 57.9539C61.9591 57.5573 62.1805 57.0195 62.1805 56.4587V2.11456C62.1822 1.67589 62.0483 1.24755 61.7973 0.888889C61.5464 0.530227 61.1909 0.258997 60.78 0.112776L59.5616 0.0704852C58.5603 0 57.5589 0 56.5366 0C44.3106 0 34.5494 0.768289 31.1042 5.15952C27.6591 0.768289 17.8979 0 5.66487 0C4.64253 0 3.6412 0 2.64687 0.0704852L1.40046 0.133922C0.992963 0.278936 0.63982 0.546945 0.389194 0.9014C0.138567 1.25585 0.00265771 1.6795 0 2.11456V56.3882C0 56.949 0.221322 57.4868 0.615278 57.8834C1.00923 58.28 1.54355 58.5027 2.10069 58.5027H15.7342C16.2276 58.5121 16.7086 58.3463 17.0927 58.0344C17.4768 57.7225 17.7395 57.2844 17.8349 56.797C17.8349 56.4234 17.7859 56.0428 17.7859 55.6622C17.7844 55.1439 17.8148 54.626 17.8769 54.1115C18.283 50.545 20.0826 48.1203 22.7085 45.9705L18.129 42.4462C15.104 45.322 13.0103 48.4797 12.3801 52.8146H5.66487V5.63882H5.80491C18.6051 5.63882 27.8482 6.73134 31.0132 11.6019C31.0292 11.6362 31.0479 11.6692 31.0692 11.7005L31.1673 11.5948ZM23.1286 29.3219C23.1277 28.2692 23.3333 27.2268 23.7337 26.2544C24.1341 25.2819 24.7214 24.3987 25.4618 23.6554C26.2022 22.912 27.0812 22.3232 28.0483 21.9228C29.0154 21.5223 30.0515 21.3181 31.0972 21.3218C35.4807 21.3218 39.0309 24.1976 39.0309 28.61C39.0309 33.0223 35.4807 37.3008 31.0972 37.3008C28.9925 37.3008 26.9738 36.4596 25.4848 34.9622C23.9959 33.4647 23.1585 31.4335 23.1566 29.3148L23.1286 29.3219Z" fill="white"/>
<path d="M100.833 13.7799V25.9034H96.7508V13.9209C96.7508 11.0451 95.2383 9.69176 93.2497 9.69176C91.03 9.69176 89.4404 11.0451 89.4404 14.1746V25.8752H85.3581V13.8927C85.3581 11.0169 83.9926 9.66357 81.983 9.66357C79.8123 9.66357 78.2017 11.0169 78.2017 14.1464V25.847H74.1194V6.11111H78.0757V8.5358C78.622 7.64937 79.3936 6.92589 80.3107 6.44014C81.2279 5.95439 82.2572 5.724 83.2924 5.77278C85.7362 5.77278 87.5778 6.81596 88.5581 8.67677C89.1811 7.74309 90.0316 6.98584 91.0283 6.47742C92.025 5.969 93.1346 5.72639 94.251 5.77278C98.3264 5.82917 100.833 8.564 100.833 13.7799Z" fill="white"/>
<path d="M117.303 10.735V23.3659C117.303 29.0048 114.656 31.5986 109.915 31.5986C107.422 31.5986 105.014 30.8938 103.438 29.4841L105.035 26.3545C106.314 27.4504 107.941 28.0503 109.621 28.0462C112.268 28.0462 113.402 26.6365 113.402 23.9298V23.4223C112.897 23.9847 112.279 24.4317 111.588 24.7332C110.897 25.0347 110.15 25.1838 109.397 25.1704C105.994 25.1704 103.599 23.0558 103.599 18.3474V10.735H107.534V17.6989C107.534 20.2646 108.543 21.3924 110.279 21.3924C112.016 21.3924 113.402 20.0954 113.402 17.3042V10.735H117.303Z" fill="white"/>
<path d="M72.6909 49.3397L74.0914 45.9C75.758 47.1946 77.7983 47.9072 79.9033 47.93C82.3261 47.93 83.3064 47.0278 83.3064 45.8154C83.3064 42.122 73.048 44.6595 73.048 37.3572C73.048 34.0021 75.4708 31.2109 80.4845 31.2109C82.654 31.1681 84.787 31.7766 86.6115 32.9589L85.3511 36.4268C83.896 35.4533 82.1962 34.9156 80.4495 34.8761C78.0267 34.8761 77.0954 35.8911 77.0954 37.1317C77.0954 40.7687 87.3537 38.2594 87.3537 45.5053C87.3537 48.804 84.9099 51.6234 79.8683 51.6234C77.0814 51.6164 74.2244 50.686 72.6909 49.3397Z" fill="white"/>
<path d="M97.2619 50.5451C96.3353 51.2068 95.2183 51.5436 94.0828 51.5037C90.8548 51.5037 89.0132 49.6711 89.0132 46.0622V32.7546H92.9485V36.448H96.3026V39.8313H92.9485V46.0058C92.9485 47.3028 93.5577 48.0076 94.615 48.0076C95.1997 48.008 95.7673 47.8092 96.2255 47.4437L97.2619 50.5451Z" fill="white"/>
<path d="M111.904 36.1096V51.278H108.172V49.4736C107.674 50.1146 107.036 50.6313 106.307 50.9834C105.578 51.3355 104.779 51.5135 103.97 51.5036C100.567 51.5036 98.1724 49.389 98.1724 44.6806V36.1096H102.108V44.0322C102.108 46.5696 103.116 47.6974 104.853 47.6974C106.589 47.6974 107.976 46.4005 107.976 43.6092V36.1096H111.904Z" fill="white"/>
<path d="M128.45 30.358V51.278H124.697V49.53C124.208 50.1769 123.57 50.6945 122.838 51.0383C122.106 51.3821 121.303 51.5418 120.496 51.5036C116.666 51.5036 113.718 48.4586 113.718 43.6938C113.718 38.929 116.666 35.8841 120.496 35.8841C121.267 35.8514 122.034 36.0001 122.738 36.3182C123.442 36.6363 124.062 37.1151 124.55 37.7167V30.358H128.45ZM124.592 43.7009C124.592 41.0788 123.08 39.4718 121.14 39.4718C119.2 39.4718 117.639 41.0506 117.639 43.7009C117.639 46.3511 119.151 47.93 121.14 47.93C123.129 47.93 124.592 46.3159 124.592 43.7009Z" fill="white"/>
<path d="M144.597 36.1096V48.7406C144.597 54.3794 141.951 56.9732 137.21 56.9732C134.717 56.9732 132.308 56.2684 130.733 54.8587L132.294 51.7009C133.574 52.7969 135.201 53.3968 136.881 53.3926C139.528 53.3926 140.662 51.9829 140.662 49.2763V48.7688C140.157 49.3311 139.539 49.7781 138.848 50.0796C138.157 50.3812 137.41 50.5302 136.657 50.5168C133.254 50.5168 130.859 48.4022 130.859 43.6938V36.1096H134.794V43.0736C134.794 45.6392 135.803 46.767 137.539 46.767C139.276 46.767 140.662 45.4701 140.662 42.6788V36.1096H144.597Z" fill="white"/>
<path d="M162.902 38.7036C162.902 43.1018 159.954 45.8367 155.241 45.8367H151.684V51.2781H147.602V31.5423H155.241C159.954 31.5423 162.902 34.2771 162.902 38.7036ZM158.77 38.7036C158.77 36.5326 157.51 35.2639 155.017 35.2639H151.691V42.115H155.017C157.51 42.115 158.77 40.8815 158.77 38.7036Z" fill="white"/>
<path d="M178.426 36.1098V51.2782H174.672V49.5302C174.183 50.1771 173.545 50.6947 172.814 51.0385C172.082 51.3822 171.278 51.5419 170.471 51.5037C166.641 51.5037 163.693 48.4588 163.693 43.694C163.693 38.9292 166.641 35.8842 170.471 35.8842C171.242 35.8516 172.01 36.0002 172.713 36.3184C173.417 36.6365 174.038 37.1153 174.525 37.7168V36.1098H178.426ZM174.567 43.701C174.567 41.079 173.055 39.4719 171.115 39.4719C169.176 39.4719 167.614 41.0508 167.614 43.701C167.614 46.3513 169.127 47.9301 171.115 47.9301C173.104 47.9301 174.567 46.316 174.567 43.701Z" fill="white"/>
<path d="M194.958 30.358V51.278H191.205V49.53C190.716 50.1769 190.078 50.6945 189.346 51.0383C188.614 51.3821 187.81 51.5418 187.004 51.5036C183.173 51.5036 180.225 48.4586 180.225 43.6938C180.225 38.929 183.173 35.8841 187.004 35.8841C187.774 35.8514 188.542 36.0001 189.246 36.3182C189.95 36.6363 190.57 37.1151 191.058 37.7167V30.358H194.958ZM191.107 43.7009C191.107 41.0788 189.594 39.4718 187.655 39.4718C185.715 39.4718 184.154 41.0506 184.154 43.7009C184.154 46.3511 185.666 47.93 187.655 47.93C189.643 47.93 191.107 46.3159 191.107 43.7009Z" fill="white"/>
<path d="M197.115 31.5422C197.103 31.2157 197.158 30.8902 197.278 30.5863C197.397 30.2823 197.577 30.0065 197.807 29.7761C198.037 29.5457 198.312 29.3658 198.615 29.2476C198.918 29.1294 199.241 29.0755 199.566 29.0893C199.884 29.0697 200.203 29.1169 200.502 29.2277C200.801 29.3386 201.074 29.5108 201.304 29.7334C201.534 29.956 201.715 30.2242 201.837 30.521C201.958 30.8178 202.017 31.1368 202.01 31.4576C202.015 31.7816 201.957 32.1035 201.839 32.4049C201.721 32.7064 201.545 32.9814 201.321 33.2145C201.098 33.4475 200.831 33.6338 200.535 33.7629C200.24 33.8921 199.923 33.9614 199.601 33.9669C199.279 33.9725 198.959 33.9142 198.66 33.7953C198.36 33.6765 198.087 33.4994 197.855 33.2743C197.624 33.0491 197.439 32.7803 197.311 32.4831C197.182 32.1859 197.113 31.8662 197.108 31.5422H197.115ZM197.591 36.1097H201.526V51.2781H197.591V36.1097Z" fill="white"/>
</svg>
